<svg xmlns="http://www.w3.org/2000/svg" width="174.264" height="57.699" viewBox="0 0 174.264 57.699">
  <g id="Group_5874" data-name="Group 5874" transform="translate(-73 -7.886)">
    <g id="Component_65_2" data-name="Component 65 – 2" transform="translate(138.725 20)">
      <g id="Group_5761" data-name="Group 5761" transform="translate(5013.275 -2435.29)">
        <path id="Path_3451" data-name="Path 3451" d="M10.281-8.211a3.535,3.535,0,0,1,2.185,1.357,3.991,3.991,0,0,1,.9,2.553,3.956,3.956,0,0,1-.633,2.2A4.286,4.286,0,0,1,10.9-.564,6.465,6.465,0,0,1,8.119,0H1.725V-15.985h6.1a6.542,6.542,0,0,1,2.806.552A4.118,4.118,0,0,1,12.4-13.95a3.772,3.772,0,0,1,.6,2.082,3.565,3.565,0,0,1-.736,2.3A4.285,4.285,0,0,1,10.281-8.211ZM4.347-9.269H7.59A3.115,3.115,0,0,0,9.6-9.856a2.049,2.049,0,0,0,.724-1.691,2.09,2.09,0,0,0-.724-1.69,3.034,3.034,0,0,0-2.013-.61H4.347Zm3.542,7.13a3.135,3.135,0,0,0,2.093-.644,2.225,2.225,0,0,0,.759-1.794A2.328,2.328,0,0,0,9.936-6.44,3.174,3.174,0,0,0,7.8-7.13H4.347v4.991Zm9.66-12.213a1.624,1.624,0,0,1-1.2-.483,1.624,1.624,0,0,1-.483-1.2,1.624,1.624,0,0,1,.483-1.2,1.624,1.624,0,0,1,1.2-.483,1.6,1.6,0,0,1,1.173.483,1.624,1.624,0,0,1,.483,1.2,1.624,1.624,0,0,1-.483,1.2A1.6,1.6,0,0,1,17.549-14.352Zm1.288,1.679V0H16.215V-12.673Zm9.844-.207a5.683,5.683,0,0,1,2.68.621,4.416,4.416,0,0,1,1.852,1.84,6.053,6.053,0,0,1,.667,2.944V0h-2.6V-7.084a3.678,3.678,0,0,0-.851-2.611,3.029,3.029,0,0,0-2.323-.908,3.066,3.066,0,0,0-2.335.908,3.647,3.647,0,0,0-.862,2.611V0H22.287V-12.673h2.622v1.449a4.34,4.34,0,0,1,1.645-1.219A5.257,5.257,0,0,1,28.681-12.88ZM36.34-6.394a7.014,7.014,0,0,1,.793-3.381A5.816,5.816,0,0,1,39.3-12.064a5.835,5.835,0,0,1,3.048-.816,5.943,5.943,0,0,1,2.45.54,5.012,5.012,0,0,1,1.92,1.438V-17.02h2.645V0H46.713V-1.909A4.909,4.909,0,0,1,44.931-.391a5.531,5.531,0,0,1-2.611.6A5.672,5.672,0,0,1,39.3-.633a5.925,5.925,0,0,1-2.162-2.346A7.217,7.217,0,0,1,36.34-6.394Zm10.373.046a4.589,4.589,0,0,0-.54-2.277A3.794,3.794,0,0,0,44.758-10.1a3.7,3.7,0,0,0-1.886-.506,3.767,3.767,0,0,0-1.886.495A3.729,3.729,0,0,0,39.571-8.66a4.524,4.524,0,0,0-.541,2.265,4.721,4.721,0,0,0,.541,2.3A3.813,3.813,0,0,0,41-2.588a3.657,3.657,0,0,0,1.875.517,3.7,3.7,0,0,0,1.886-.506A3.775,3.775,0,0,0,46.173-4.06,4.655,4.655,0,0,0,46.713-6.348Zm17.71-.3a8.2,8.2,0,0,1-.092,1.288H54.648a3.517,3.517,0,0,0,1.127,2.438A3.558,3.558,0,0,0,58.259-2a3.068,3.068,0,0,0,2.99-1.771h2.829A5.709,5.709,0,0,1,62-.909,6.107,6.107,0,0,1,58.259.207,6.472,6.472,0,0,1,55-.61a5.809,5.809,0,0,1-2.254-2.3,7.016,7.016,0,0,1-.816-3.439,7.181,7.181,0,0,1,.793-3.438,5.58,5.58,0,0,1,2.231-2.289,6.64,6.64,0,0,1,3.3-.8,6.454,6.454,0,0,1,3.2.782,5.526,5.526,0,0,1,2.185,2.2A6.615,6.615,0,0,1,64.423-6.647Zm-2.737-.828A2.984,2.984,0,0,0,60.651-9.8a3.7,3.7,0,0,0-2.507-.874,3.368,3.368,0,0,0-2.323.862,3.6,3.6,0,0,0-1.15,2.335Zm7.935-3.358a4.118,4.118,0,0,1,1.53-1.507,4.524,4.524,0,0,1,2.265-.54v2.714h-.667a3.193,3.193,0,0,0-2.334.782,3.739,3.739,0,0,0-.794,2.714V0H67V-12.673h2.622Z" transform="translate(-5015 2453)" fill="#103bb5"/>
        <path id="Path_3450" data-name="Path 3450" d="M12.912-11.12V0H11.088V-7.616L7.7,0H6.432L3.024-7.616V0H1.2V-11.12H3.168l3.9,8.72,3.888-8.72ZM14.7-4.448A4.879,4.879,0,0,1,15.256-6.8a4.046,4.046,0,0,1,1.5-1.592,4.029,4.029,0,0,1,2.1-.568,3.849,3.849,0,0,1,1.816.408,3.685,3.685,0,0,1,1.24,1.016v-1.28h1.84V0H21.92V-1.312a3.622,3.622,0,0,1-1.264,1.04,3.9,3.9,0,0,1-1.824.416,3.877,3.877,0,0,1-2.08-.584,4.142,4.142,0,0,1-1.5-1.632A5.021,5.021,0,0,1,14.7-4.448Zm7.216.032A3.192,3.192,0,0,0,21.544-6a2.639,2.639,0,0,0-.984-1.024,2.574,2.574,0,0,0-1.312-.352,2.62,2.62,0,0,0-1.312.344,2.594,2.594,0,0,0-.984,1.008,3.147,3.147,0,0,0-.376,1.576,3.284,3.284,0,0,0,.376,1.6A2.653,2.653,0,0,0,17.944-1.8a2.544,2.544,0,0,0,1.3.36,2.574,2.574,0,0,0,1.312-.352,2.626,2.626,0,0,0,.984-1.032A3.238,3.238,0,0,0,21.92-4.416ZM30.608-8.96a3.953,3.953,0,0,1,1.864.432,3.072,3.072,0,0,1,1.288,1.28A4.211,4.211,0,0,1,34.224-5.2V0H32.416V-4.928a2.559,2.559,0,0,0-.592-1.816,2.107,2.107,0,0,0-1.616-.632,2.133,2.133,0,0,0-1.624.632,2.537,2.537,0,0,0-.6,1.816V0H26.16V-8.816h1.824v1.008a3.019,3.019,0,0,1,1.144-.848A3.657,3.657,0,0,1,30.608-8.96Zm5.328,4.512A4.879,4.879,0,0,1,36.488-6.8a4.046,4.046,0,0,1,1.5-1.592,4.029,4.029,0,0,1,2.1-.568,3.849,3.849,0,0,1,1.816.408,3.685,3.685,0,0,1,1.24,1.016v-1.28h1.84V0h-1.84V-1.312a3.622,3.622,0,0,1-1.264,1.04,3.9,3.9,0,0,1-1.824.416,3.877,3.877,0,0,1-2.08-.584,4.142,4.142,0,0,1-1.5-1.632A5.021,5.021,0,0,1,35.936-4.448Zm7.216.032A3.192,3.192,0,0,0,42.776-6a2.639,2.639,0,0,0-.984-1.024,2.574,2.574,0,0,0-1.312-.352,2.62,2.62,0,0,0-1.312.344,2.594,2.594,0,0,0-.984,1.008,3.147,3.147,0,0,0-.376,1.576,3.284,3.284,0,0,0,.376,1.6A2.653,2.653,0,0,0,39.176-1.8a2.544,2.544,0,0,0,1.3.36,2.574,2.574,0,0,0,1.312-.352,2.626,2.626,0,0,0,.984-1.032A3.238,3.238,0,0,0,43.152-4.416ZM50.944-8.96a3.909,3.909,0,0,1,1.816.408A3.488,3.488,0,0,1,54-7.536v-1.28h1.84V.144a4.5,4.5,0,0,1-.512,2.168,3.7,3.7,0,0,1-1.48,1.5,4.647,4.647,0,0,1-2.312.544,5.017,5.017,0,0,1-2.976-.84,3.1,3.1,0,0,1-1.344-2.28h1.808a1.963,1.963,0,0,0,.888,1.112,3.007,3.007,0,0,0,1.624.424A2.428,2.428,0,0,0,53.32,2.1,2.625,2.625,0,0,0,54,.144V-1.328A3.719,3.719,0,0,1,52.744-.28a3.754,3.754,0,0,1-1.8.424,3.945,3.945,0,0,1-2.1-.584,4.122,4.122,0,0,1-1.5-1.632,5.021,5.021,0,0,1-.552-2.376A4.879,4.879,0,0,1,47.336-6.8a4.046,4.046,0,0,1,1.5-1.592A4.029,4.029,0,0,1,50.944-8.96ZM54-4.416A3.192,3.192,0,0,0,53.624-6a2.639,2.639,0,0,0-.984-1.024,2.574,2.574,0,0,0-1.312-.352,2.62,2.62,0,0,0-1.312.344,2.594,2.594,0,0,0-.984,1.008,3.147,3.147,0,0,0-.376,1.576,3.284,3.284,0,0,0,.376,1.6A2.653,2.653,0,0,0,50.024-1.8a2.544,2.544,0,0,0,1.3.36,2.574,2.574,0,0,0,1.312-.352,2.626,2.626,0,0,0,.984-1.032A3.238,3.238,0,0,0,54-4.416Zm12.32-.208a5.7,5.7,0,0,1-.064.9H59.52a2.446,2.446,0,0,0,.784,1.7,2.475,2.475,0,0,0,1.728.64,2.134,2.134,0,0,0,2.08-1.232H66.08A3.971,3.971,0,0,1,64.632-.632a4.249,4.249,0,0,1-2.6.776,4.5,4.5,0,0,1-2.264-.568,4.041,4.041,0,0,1-1.568-1.6,4.881,4.881,0,0,1-.568-2.392,5,5,0,0,1,.552-2.392A3.882,3.882,0,0,1,59.736-8.4a4.619,4.619,0,0,1,2.3-.56,4.49,4.49,0,0,1,2.224.544,3.844,3.844,0,0,1,1.52,1.528A4.6,4.6,0,0,1,66.32-4.624Zm-1.9-.576a2.076,2.076,0,0,0-.72-1.616,2.574,2.574,0,0,0-1.744-.608,2.343,2.343,0,0,0-1.616.6,2.507,2.507,0,0,0-.8,1.624ZM78.784-8.96a3.953,3.953,0,0,1,1.864.432,3.121,3.121,0,0,1,1.3,1.28A4.152,4.152,0,0,1,82.416-5.2V0H80.608V-4.928a2.559,2.559,0,0,0-.592-1.816A2.107,2.107,0,0,0,78.4-7.376a2.133,2.133,0,0,0-1.624.632,2.537,2.537,0,0,0-.6,1.816V0H74.368V-4.928a2.559,2.559,0,0,0-.592-1.816,2.107,2.107,0,0,0-1.616-.632,2.133,2.133,0,0,0-1.624.632,2.537,2.537,0,0,0-.6,1.816V0H68.112V-8.816h1.824v1.008a3.033,3.033,0,0,1,1.136-.848,3.6,3.6,0,0,1,1.472-.3,3.919,3.919,0,0,1,1.888.448,3.062,3.062,0,0,1,1.28,1.3A2.957,2.957,0,0,1,76.96-8.488,3.691,3.691,0,0,1,78.784-8.96ZM92.816-4.624a5.7,5.7,0,0,1-.064.9H86.016a2.446,2.446,0,0,0,.784,1.7,2.475,2.475,0,0,0,1.728.64,2.134,2.134,0,0,0,2.08-1.232h1.968A3.971,3.971,0,0,1,91.128-.632a4.249,4.249,0,0,1-2.6.776,4.5,4.5,0,0,1-2.264-.568,4.041,4.041,0,0,1-1.568-1.6,4.881,4.881,0,0,1-.568-2.392,5,5,0,0,1,.552-2.392A3.882,3.882,0,0,1,86.232-8.4a4.619,4.619,0,0,1,2.3-.56,4.49,4.49,0,0,1,2.224.544,3.844,3.844,0,0,1,1.52,1.528A4.6,4.6,0,0,1,92.816-4.624Zm-1.9-.576a2.076,2.076,0,0,0-.72-1.616,2.574,2.574,0,0,0-1.744-.608,2.343,2.343,0,0,0-1.616.6,2.507,2.507,0,0,0-.8,1.624Zm8.144-3.76a3.953,3.953,0,0,1,1.864.432,3.072,3.072,0,0,1,1.288,1.28,4.211,4.211,0,0,1,.464,2.048V0h-1.808V-4.928a2.559,2.559,0,0,0-.592-1.816,2.107,2.107,0,0,0-1.616-.632,2.133,2.133,0,0,0-1.624.632,2.537,2.537,0,0,0-.6,1.816V0H94.608V-8.816h1.824v1.008a3.019,3.019,0,0,1,1.144-.848A3.657,3.657,0,0,1,99.056-8.96Zm8.064,1.632v4.88a.937.937,0,0,0,.232.712,1.154,1.154,0,0,0,.792.216h1.12V0h-1.44a2.776,2.776,0,0,1-1.888-.576,2.374,2.374,0,0,1-.656-1.872v-4.88h-1.04V-8.816h1.04v-2.192h1.84v2.192h2.144v1.488Z" transform="translate(-5014 2467)" fill="#103bb5"/>
      </g>
    </g>
    <g id="Group_5911" data-name="Group 5911" transform="translate(-1266.649 -1282.068)">
      <g id="Group_5896" data-name="Group 5896" transform="translate(1341.49 1291.866)" opacity="0.18">
        <g id="Group_5895" data-name="Group 5895" transform="translate(0 0)">
          <path id="Path_3536" data-name="Path 3536" d="M1392.465,1759.33s-1.694-2.156-10.229-2.6l-5.27-.986s-5.456.241-4.563,6.439c0,0,1.883,12.565,11.641,17.451,0,0,9.069,6.4,14.547-5.041,0,0-1.855-6.314-1.533-9.634C1397.058,1764.959,1394.1,1764.877,1392.465,1759.33Zm2.68,6.678c.528,1.206-.983,2.078-.983,2.078-1.491,1.2,1.068,5.259,1.068,5.259,1.407,4.391-3.963,5.718-3.963,5.718-1.982,1.218-3.005.319-3.005.319-.383-.955,1.52-2.892,1.52-2.892,3.7-2.307.482-4.979.482-4.979-1.929-3.922,2.589-5.691,2.589-5.691C1394.995,1764.584,1395.145,1766.008,1395.145,1766.008Z" transform="translate(-1372.304 -1731.399)" fill="#103bb5"/>
          <path id="Path_3537" data-name="Path 3537" d="M1563.285,1344.287s2.69-.527,6.971-7.925l3.278-4.244s2.268-4.967-3.656-6.994c0,0-12.046-4.044-20.838,2.42,0,0-9.83,5.159-2.134,15.248,0,0,6.466,1.222,9.275,3.021C1556.18,1345.813,1557.6,1343.218,1563.285,1344.287Zm-7.167-.655c-1.313-.078-1.4-1.821-1.4-1.821-.386-1.872-5.168-1.443-5.168-1.443-4.551-.746-3.288-6.132-3.288-6.132-.182-2.32,1.084-2.82,1.084-2.82,1.024.094,1.883,2.669,1.883,2.669.368,4.349,4.212,2.7,4.212,2.7,4.371.069,3.89,4.9,3.89,4.9C1557.455,1344.147,1556.118,1343.633,1556.118,1343.633Z" transform="translate(-1534.286 -1323.876)" fill="#103bb5"/>
          <path id="Path_3538" data-name="Path 3538" d="M1910.358,1706.769s-1.2,2.465,2.118,10.341l1.407,5.172s2.595,4.807,7.785,1.3c0,0,10.49-7.169,10.636-18.081,0,0,1.813-10.952-10.875-10.9,0,0-4.874,4.419-8,5.575C1913.425,1700.182,1914.64,1702.881,1910.358,1706.769Zm4.845-5.321c.855-1,2.3-.022,2.3-.022,1.727.82,4.268-3.254,4.268-3.254,3.341-3.178,6.875,1.078,6.875,1.078,1.959,1.253,1.595,2.566,1.595,2.566-.692.761-3.265-.109-3.265-.109-3.691-2.328-4.692,1.736-4.692,1.736-2.691,3.444-6.251.149-6.251.149C1913.985,1702.2,1915.2,1701.449,1915.2,1701.449Z" transform="translate(-1879.825 -1673.707)" fill="#103bb5"/>
          <path id="Path_3539" data-name="Path 3539" d="M1769.18,1724.174a4.409,4.409,0,1,1-1.614,6.023A4.41,4.41,0,0,1,1769.18,1724.174Z" transform="translate(-1744.725 -1701.049)" fill="#103bb5"/>
        </g>
      </g>
      <rect id="Rectangle_1494" data-name="Rectangle 1494" width="32.208" height="11.162" transform="translate(1352.445 1313.687)" fill="#103bb5"/>
      <g id="Group_5898" data-name="Group 5898" transform="translate(1353.445 1316.101)">
        <g id="Group_5897" data-name="Group 5897" transform="translate(0 0)">
          <path id="Path_3540" data-name="Path 3540" d="M1588.575,1753.867h1.418v6.125h-1.418v-2.511h-2.783v2.511h-1.418v-6.125h1.418v2.415h2.783Zm3.29,6.2a.821.821,0,0,1-.6-.245.832.832,0,0,1-.245-.613h0a.8.8,0,0,1,.245-.608.846.846,0,0,1,.6-.232h0a.845.845,0,0,1,.6.232.8.8,0,0,1,.245.608h0a.831.831,0,0,1-.245.613.821.821,0,0,1-.6.245Zm3.281-1.208h3.334v1.138h-4.743v-6.125h4.629V1755h-3.22v1.33h2.844v1.1h-2.844Zm4.97,1.208a.821.821,0,0,1-.6-.245.832.832,0,0,1-.245-.613h0a.8.8,0,0,1,.245-.608.846.846,0,0,1,.6-.232h0a.844.844,0,0,1,.6.232.8.8,0,0,1,.245.608h0a.831.831,0,0,1-.245.613.82.82,0,0,1-.6.245Zm3.885.035a5.009,5.009,0,0,1-1.4-.2,3.293,3.293,0,0,1-1.089-.512h0l.481-1.068a3.266,3.266,0,0,0,.936.464,3.516,3.516,0,0,0,1.085.175h0a1.735,1.735,0,0,0,.893-.179.542.542,0,0,0,.289-.477h0a.457.457,0,0,0-.171-.363,1.3,1.3,0,0,0-.438-.232q-.267-.087-.722-.193h0a10.058,10.058,0,0,1-1.146-.332,1.866,1.866,0,0,1-.766-.534,1.443,1.443,0,0,1-.319-.98h0a1.7,1.7,0,0,1,.289-.967,1.943,1.943,0,0,1,.871-.687,3.554,3.554,0,0,1,1.422-.254h0a4.7,4.7,0,0,1,1.146.14,3.382,3.382,0,0,1,.98.4h0l-.437,1.076a3.416,3.416,0,0,0-1.7-.481h0a1.592,1.592,0,0,0-.88.193.587.587,0,0,0-.284.508h0a.5.5,0,0,0,.328.468,5.148,5.148,0,0,0,1,.3h0a9.987,9.987,0,0,1,1.146.333,1.9,1.9,0,0,1,.766.525,1.407,1.407,0,0,1,.32.971h0a1.672,1.672,0,0,1-.293.958,1.969,1.969,0,0,1-.879.687,3.587,3.587,0,0,1-1.426.254Zm4.165-.035a.821.821,0,0,1-.6-.245.832.832,0,0,1-.245-.613h0a.8.8,0,0,1,.245-.608.846.846,0,0,1,.6-.232h0a.845.845,0,0,1,.6.232.8.8,0,0,1,.245.608h0a.831.831,0,0,1-.245.613.82.82,0,0,1-.6.245Zm3.142-.07v-4.97h-1.96v-1.155h5.338v1.155h-1.96v4.97Z" transform="translate(-1584.375 -1753.762)" fill="#fff"/>
        </g>
      </g>
      <g id="Group_5901" data-name="Group 5901" transform="translate(1386.491 1316.485)">
        <g id="Group_5900" data-name="Group 5900" transform="translate(0 0)">
          <g id="Group_5899" data-name="Group 5899">
            <path id="Path_3541" data-name="Path 3541" d="M2177.145,1762.164v.755h-.068v-.892h-.343v.892h-.069v-.137h-.343v.137h-.069v-.617h-.343v.617h-.068v-1.1h-.343v1.1h-.069v-1.029h-.343v1.029h-.069v-1.784h-.343v1.784h-.069v-.206h-.343v.206h-.069v-.617h-.343v.617h-.069v-1.784h-.343v1.784h-.069v-1.029h-.343v1.029h-.068v-.892h-.343v.892h-.069v-.412h-.343v.412h-.069v-1.3h-.343v1.3h-.069v-2.333h-.343v2.333h-.069v-.892h-.343v.892h-.068v-.412h-.343v1.029h.343v-.412h.068v.892h.343v-.892h.069v2.333h.343v-2.333h.069v1.3h.343v-1.3h.069v.412h.343v-.412h.069v.892h.343v-.892h.068v1.029h.343v-1.029h.069v1.784h.343v-1.784h.069v.617h.343v-.617h.069v.206h.343v-.206h.069v1.784h.343v-1.784h.069v1.029h.343v-1.029h.069v1.1h.343v-1.1h.068v.617h.343v-.617h.069v.137h.343v-.137h.069v.892h.343v-.892h.068v.755h.275v-1.715Z" transform="translate(-2170.558 -1760.585)" fill="#103bb5"/>
          </g>
        </g>
      </g>
      <g id="Group_5904" data-name="Group 5904" transform="translate(1343.855 1315.633)">
        <g id="Group_5903" data-name="Group 5903" transform="translate(0 0)">
          <g id="Group_5902" data-name="Group 5902">
            <path id="Path_3542" data-name="Path 3542" d="M1420.834,1751.638v.411h-6.575v-6.575h.411v6.164Zm-.822-6.164-1.618.264.389.476-3.422,2.8.26.318,3.422-2.8.389.475Zm-.447,2.344-.375-.458v3.867h.822v-4.591Zm-2.841,1.142v2.267h.822v-2.939Zm-1.161.949-.072-.088v1.406h.822V1749.3Zm2.394-1.958v3.276h.822v-3.948Z" transform="translate(-1414.259 -1745.474)" fill="#103bb5"/>
          </g>
        </g>
      </g>
      <g id="Group_5905" data-name="Group 5905" transform="translate(1339.649 1289.954)">
        <path id="Path_3543" data-name="Path 3543" d="M1368.5,1347.653a29.048,29.048,0,0,1-5.813-.586,28.69,28.69,0,0,1-10.317-4.341,28.933,28.933,0,0,1-10.452-12.692,28.693,28.693,0,0,1-1.681-5.416,29.129,29.129,0,0,1,0-11.627,28.7,28.7,0,0,1,4.341-10.317,28.935,28.935,0,0,1,12.692-10.452,28.7,28.7,0,0,1,5.416-1.681,29.11,29.11,0,0,1,11.627,0,28.684,28.684,0,0,1,10.317,4.341,28.93,28.93,0,0,1,10.452,12.692,28.7,28.7,0,0,1,1.681,5.416,29.129,29.129,0,0,1,0,11.627,28.7,28.7,0,0,1-4.341,10.316,28.933,28.933,0,0,1-12.693,10.452,28.707,28.707,0,0,1-5.416,1.681A29.053,29.053,0,0,1,1368.5,1347.653Zm0-56.712a27.862,27.862,0,1,0,27.863,27.863A27.894,27.894,0,0,0,1368.5,1290.941Z" transform="translate(-1339.649 -1289.954)" fill="#103bb5"/>
      </g>
      <g id="Group_5906" data-name="Group 5906" transform="translate(1384.655 1313.687)">
        <path id="Path_3544" data-name="Path 3544" d="M2148.416,1722.116h-10.429v-11.162h10.429Zm-9.7-.733h8.963v-9.7h-8.963Z" transform="translate(-2137.987 -1710.954)" fill="#103bb5"/>
      </g>
      <g id="Group_5907" data-name="Group 5907" transform="translate(1342.119 1313.687)">
        <path id="Path_3545" data-name="Path 3545" d="M1393.9,1722.116h-10.429v-11.162H1393.9Zm-9.7-.733h8.963v-9.7H1384.2Z" transform="translate(-1383.469 -1710.954)" fill="#103bb5"/>
      </g>
      <g id="Group_5910" data-name="Group 5910" transform="translate(1344.946 1325.659)">
        <g id="Group_5909" data-name="Group 5909" transform="translate(0 0)">
          <g id="Group_5908" data-name="Group 5908">
            <path id="Path_3546" data-name="Path 3546" d="M1453.55,1923.645l.44,0,.013,1.556-.44,0-.005-.607-.6,0,.005.607-.44,0-.014-1.556.44,0,0,.584.6-.005Zm1.361.321a.678.678,0,0,1,.459.133.525.525,0,0,1,.161.418h0l.005.669-.393,0v-.156a.362.362,0,0,1-.354.178h0a.558.558,0,0,1-.242-.047.361.361,0,0,1-.156-.131.349.349,0,0,1-.054-.189h0a.31.31,0,0,1,.129-.267.7.7,0,0,1,.4-.1h.24q-.012-.192-.257-.189h0a.585.585,0,0,0-.175.03.466.466,0,0,0-.151.077h0l-.144-.285a.792.792,0,0,1,.242-.1,1.174,1.174,0,0,1,.288-.039Zm-.008.978a.23.23,0,0,0,.128-.037.2.2,0,0,0,.08-.1h0v-.1h-.182q-.184,0-.183.124h0a.108.108,0,0,0,.043.088.18.18,0,0,0,.116.033Zm1.406-.824a.4.4,0,0,1,.167-.125.635.635,0,0,1,.236-.042h0l0,.38a.776.776,0,0,0-.1-.005h0a.293.293,0,0,0-.212.074.3.3,0,0,0-.075.225h0l0,.553-.422,0-.009-1.2.4,0Zm.7,1.055-.009-1.2.422,0,.008,1.2Zm.2-1.34a.269.269,0,0,1-.187-.063.208.208,0,0,1-.072-.159h0a.207.207,0,0,1,.07-.161.267.267,0,0,1,.186-.066h0a.278.278,0,0,1,.187.06.2.2,0,0,1,.072.156h0a.216.216,0,0,1-.07.166.262.262,0,0,1-.186.067Zm1.833.726s0,.038-.006.1h0l-.876.005a.245.245,0,0,0,.1.143.351.351,0,0,0,.193.049h0a.415.415,0,0,0,.15-.026.45.45,0,0,0,.127-.081h0l.224.229a.655.655,0,0,1-.512.2h0a.811.811,0,0,1-.371-.078.589.589,0,0,1-.34-.542h0a.6.6,0,0,1,.083-.319.593.593,0,0,1,.235-.222.715.715,0,0,1,.34-.083h0a.722.722,0,0,1,.327.072.565.565,0,0,1,.233.214.634.634,0,0,1,.088.334Zm-.644-.32a.242.242,0,0,0-.163.057.248.248,0,0,0-.082.152h0l.493,0a.248.248,0,0,0-.085-.151.245.245,0,0,0-.164-.054Zm1.843-.292.4,0,.005.985a.65.65,0,0,1-.179.5.747.747,0,0,1-.524.17h0a1.326,1.326,0,0,1-.333-.038.774.774,0,0,1-.265-.116h0l.152-.3a.537.537,0,0,0,.186.094.74.74,0,0,0,.221.033h0a.348.348,0,0,0,.244-.075.289.289,0,0,0,.077-.219h0v-.04a.445.445,0,0,1-.357.145h0a.62.62,0,0,1-.3-.071.543.543,0,0,1-.216-.2.582.582,0,0,1-.082-.305h0a.577.577,0,0,1,.078-.3.554.554,0,0,1,.214-.206.622.622,0,0,1,.3-.074h0a.435.435,0,0,1,.379.165h0Zm-.273.808a.265.265,0,0,0,.188-.07.233.233,0,0,0,.073-.178h0a.231.231,0,0,0-.075-.176.268.268,0,0,0-.19-.067h0a.27.27,0,0,0-.189.069.229.229,0,0,0-.073.177h0a.23.23,0,0,0,.076.177.269.269,0,0,0,.189.068Zm2.294-.215s0,.038-.006.1h0l-.876,0a.244.244,0,0,0,.1.143.347.347,0,0,0,.192.049h0a.428.428,0,0,0,.15-.025.446.446,0,0,0,.127-.081h0l.223.23a.654.654,0,0,1-.512.2h0a.825.825,0,0,1-.372-.078.59.59,0,0,1-.338-.543h0a.609.609,0,0,1,.084-.319.6.6,0,0,1,.236-.222.708.708,0,0,1,.339-.082h0a.708.708,0,0,1,.327.072.563.563,0,0,1,.234.214.636.636,0,0,1,.087.334Zm-.644-.321a.241.241,0,0,0-.163.056.252.252,0,0,0-.083.152h0l.494,0a.252.252,0,0,0-.084-.151.244.244,0,0,0-.164-.054Zm.955.92-.008-1.649.422,0,.008,1.649Zm2.021-.35.813,0,0,.34-1.249,0-.007-1.556,1.22-.005,0,.34-.785,0v.262l.692,0v.329l-.692,0Zm1.932-.892a.5.5,0,0,1,.362.132.541.541,0,0,1,.138.4h0l0,.689h-.422l0-.62q0-.247-.2-.246h0a.226.226,0,0,0-.174.072.307.307,0,0,0-.065.214h0l0,.582-.422,0,0-1.2h.4v.131a.483.483,0,0,1,.169-.113.564.564,0,0,1,.213-.039Zm1.787.014h.4l0,.985a.65.65,0,0,1-.181.5.746.746,0,0,1-.524.169h0a1.339,1.339,0,0,1-.333-.039.794.794,0,0,1-.265-.117h0l.153-.3a.538.538,0,0,0,.185.094.762.762,0,0,0,.221.034h0a.349.349,0,0,0,.245-.074.288.288,0,0,0,.077-.218h0v-.04a.447.447,0,0,1-.358.143h0a.614.614,0,0,1-.3-.072.548.548,0,0,1-.216-.2.578.578,0,0,1-.081-.305h0a.57.57,0,0,1,.079-.3.548.548,0,0,1,.215-.205.614.614,0,0,1,.295-.073h0a.436.436,0,0,1,.379.165h0Zm-.275.807a.262.262,0,0,0,.187-.069.228.228,0,0,0,.074-.178h0a.229.229,0,0,0-.074-.177.268.268,0,0,0-.189-.067h0a.273.273,0,0,0-.19.068.231.231,0,0,0-.074.177h0a.229.229,0,0,0,.076.177.269.269,0,0,0,.19.068Zm1.065.4,0-1.2h.422l0,1.2Zm.208-1.339a.264.264,0,0,1-.187-.064.205.205,0,0,1-.071-.159h0a.206.206,0,0,1,.071-.16.268.268,0,0,1,.187-.065h0a.277.277,0,0,1,.187.061.2.2,0,0,1,.072.156h0a.217.217,0,0,1-.071.166.263.263,0,0,1-.186.065Zm1.382.111a.494.494,0,0,1,.362.133.541.541,0,0,1,.137.4h0v.689h-.422v-.62q0-.247-.2-.246h0a.224.224,0,0,0-.174.071.306.306,0,0,0-.066.213h0v.582h-.422l0-1.2h.4v.131a.472.472,0,0,1,.168-.113.579.579,0,0,1,.213-.039Zm2.125.621s0,.038-.006.1h-.876a.246.246,0,0,0,.1.143.345.345,0,0,0,.192.05h0a.412.412,0,0,0,.15-.025.459.459,0,0,0,.128-.081h0l.222.231a.655.655,0,0,1-.513.2h0a.828.828,0,0,1-.371-.079.59.59,0,0,1-.337-.544h0a.608.608,0,0,1,.086-.319.591.591,0,0,1,.236-.221.708.708,0,0,1,.34-.081h0a.715.715,0,0,1,.327.074.57.57,0,0,1,.233.216.629.629,0,0,1,.086.334Zm-.642-.323a.243.243,0,0,0-.163.056.254.254,0,0,0-.083.152h.494a.248.248,0,0,0-.083-.15.243.243,0,0,0-.163-.056Zm2.182.322s0,.038-.007.1h-.875a.247.247,0,0,0,.1.143.343.343,0,0,0,.192.05h0a.415.415,0,0,0,.15-.025.443.443,0,0,0,.128-.08h0l.222.231a.654.654,0,0,1-.513.2h0a.825.825,0,0,1-.371-.08.589.589,0,0,1-.336-.544h0a.594.594,0,0,1,.322-.54.715.715,0,0,1,.34-.081h0a.712.712,0,0,1,.327.074.572.572,0,0,1,.232.215.635.635,0,0,1,.086.334Zm-.642-.324a.243.243,0,0,0-.163.055.252.252,0,0,0-.083.152h.494a.252.252,0,0,0-.083-.151.243.243,0,0,0-.163-.055Zm1.353-.136a.393.393,0,0,1,.168-.123.633.633,0,0,1,.237-.041h0v.38a.879.879,0,0,0-.1-.007h0a.294.294,0,0,0-.212.073.3.3,0,0,0-.077.225h0v.553h-.422v-1.2h.4Zm.69,1.06v-1.2h.422v1.2Zm.211-1.338a.267.267,0,0,1-.187-.064.208.208,0,0,1-.071-.16h0a.207.207,0,0,1,.071-.16.267.267,0,0,1,.187-.064h0a.275.275,0,0,1,.187.061.2.2,0,0,1,.071.156h0a.216.216,0,0,1-.071.166.264.264,0,0,1-.187.065Zm1.382.114a.5.5,0,0,1,.361.134.542.542,0,0,1,.136.4h0v.689h-.422v-.62q0-.247-.2-.247h0a.225.225,0,0,0-.174.071.3.3,0,0,0-.066.213h0v.583h-.422v-1.2h.4v.131a.482.482,0,0,1,.169-.112.571.571,0,0,1,.214-.039Zm1.787.022h.4l0,.984a.65.65,0,0,1-.183.5.749.749,0,0,1-.525.167h0a1.344,1.344,0,0,1-.333-.041.793.793,0,0,1-.265-.118h0l.154-.295a.541.541,0,0,0,.186.094.742.742,0,0,0,.221.035h0a.344.344,0,0,0,.244-.073.285.285,0,0,0,.078-.218h0v-.04a.443.443,0,0,1-.358.142h0a.616.616,0,0,1-.3-.072.55.55,0,0,1-.215-.2.581.581,0,0,1-.08-.306h0a.581.581,0,0,1,.081-.3.549.549,0,0,1,.216-.2.625.625,0,0,1,.3-.072h0a.433.433,0,0,1,.377.167h0Zm-.279.807a.265.265,0,0,0,.188-.069.231.231,0,0,0,.074-.178h0a.227.227,0,0,0-.073-.177.267.267,0,0,0-.189-.068h0a.27.27,0,0,0-.19.067.23.23,0,0,0-.075.177h0a.23.23,0,0,0,.075.178.272.272,0,0,0,.189.07Zm2.388.433a1.438,1.438,0,0,1-.366-.048.893.893,0,0,1-.289-.125h0l.145-.324a.966.966,0,0,0,.242.112.935.935,0,0,0,.271.043h0q.253,0,.253-.126h0a.1.1,0,0,0-.072-.1,1.32,1.32,0,0,0-.232-.068h0a2.224,2.224,0,0,1-.293-.082.491.491,0,0,1-.2-.139.376.376,0,0,1-.084-.258h0a.442.442,0,0,1,.078-.256.518.518,0,0,1,.232-.181.957.957,0,0,1,.379-.066h0a1.339,1.339,0,0,1,.3.035.934.934,0,0,1,.262.1h0l-.136.327a.91.91,0,0,0-.431-.121h0a.368.368,0,0,0-.191.038.117.117,0,0,0-.06.1h0a.1.1,0,0,0,.071.094,1.25,1.25,0,0,0,.229.065h0a2.222,2.222,0,0,1,.294.082.51.51,0,0,1,.2.138.368.368,0,0,1,.085.257h0a.431.431,0,0,1-.078.253.525.525,0,0,1-.233.181.95.95,0,0,1-.378.067Zm1.589-.007a.75.75,0,0,1-.349-.081.6.6,0,0,1-.33-.546h0a.6.6,0,0,1,.089-.32.6.6,0,0,1,.243-.22.76.76,0,0,1,.35-.078h0a.768.768,0,0,1,.351.08.585.585,0,0,1,.241.221.594.594,0,0,1,.086.321h0a.607.607,0,0,1-.088.322.594.594,0,0,1-.243.222.754.754,0,0,1-.351.079Zm0-.335a.239.239,0,0,0,.182-.076.3.3,0,0,0,.072-.212h0a.292.292,0,0,0-.071-.209.239.239,0,0,0-.182-.076h0a.237.237,0,0,0-.182.075.3.3,0,0,0-.072.209h0a.3.3,0,0,0,.071.212.237.237,0,0,0,.182.077Zm.987.318,0-1.649h.422l-.005,1.649Zm1.656-1.2.422,0,0,1.2-.4,0V1925a.424.424,0,0,1-.16.111.521.521,0,0,1-.2.037h0a.508.508,0,0,1-.372-.139.559.559,0,0,1-.137-.414h0l0-.673h.422l0,.6a.313.313,0,0,0,.05.2.182.182,0,0,0,.149.063h0a.212.212,0,0,0,.163-.069.311.311,0,0,0,.064-.215h0Zm1.53.866.1.3a.424.424,0,0,1-.13.05.739.739,0,0,1-.164.017h0a.519.519,0,0,1-.362-.117.444.444,0,0,1-.125-.345h0l0-.4h-.176v-.316h.176l0-.313h.422l0,.313h.276v.315h-.276l0,.4a.142.142,0,0,0,.034.1.122.122,0,0,0,.093.037h0a.22.22,0,0,0,.129-.037Zm.377.346.005-1.2.423,0-.006,1.2Zm.217-1.337a.265.265,0,0,1-.186-.065.206.206,0,0,1-.071-.16h0a.209.209,0,0,1,.072-.16.268.268,0,0,1,.187-.063h0a.274.274,0,0,1,.186.062.2.2,0,0,1,.071.157h0a.218.218,0,0,1-.072.166.266.266,0,0,1-.187.064Zm1.2,1.364a.746.746,0,0,1-.349-.082.6.6,0,0,1-.328-.546h0a.6.6,0,0,1,.333-.54.762.762,0,0,1,.35-.077h0a.761.761,0,0,1,.351.081.591.591,0,0,1,.241.222.6.6,0,0,1,.085.321h0a.609.609,0,0,1-.089.322.59.59,0,0,1-.243.221.749.749,0,0,1-.351.078Zm0-.335a.235.235,0,0,0,.182-.076.3.3,0,0,0,.072-.212h0a.292.292,0,0,0-.07-.209.239.239,0,0,0-.182-.077h0a.24.24,0,0,0-.183.075.292.292,0,0,0-.072.208h0a.3.3,0,0,0,.07.213.238.238,0,0,0,.182.077Zm1.778-.9a.5.5,0,0,1,.36.135.536.536,0,0,1,.135.4h0l0,.689-.422,0,0-.62q0-.247-.2-.248h0a.227.227,0,0,0-.175.07.309.309,0,0,0-.067.213h0l0,.583-.422,0,.007-1.2.4,0v.131a.486.486,0,0,1,.17-.112.577.577,0,0,1,.214-.038Zm1.978,1.237.008-1.207-.478,0,0-.349,1.394.01,0,.349-.476,0-.008,1.207Zm2.285-.585s0,.038-.007.1h0l-.876-.006a.249.249,0,0,0,.1.144.349.349,0,0,0,.193.051h0a.421.421,0,0,0,.15-.023.457.457,0,0,0,.128-.079h0l.221.233a.655.655,0,0,1-.515.192h0a.813.813,0,0,1-.37-.082.588.588,0,0,1-.332-.547h0a.6.6,0,0,1,.326-.538.711.711,0,0,1,.341-.077h0a.71.71,0,0,1,.326.077.569.569,0,0,1,.231.217.631.631,0,0,1,.083.335Zm-.639-.329a.241.241,0,0,0-.164.054.25.25,0,0,0-.084.151h0l.493,0a.251.251,0,0,0-.082-.152.242.242,0,0,0-.163-.057Zm1.433-.29a.678.678,0,0,1,.457.14.524.524,0,0,1,.155.42h0l-.005.669-.393,0v-.156a.362.362,0,0,1-.357.174h0a.559.559,0,0,1-.242-.051.357.357,0,0,1-.153-.133.346.346,0,0,1-.051-.19h0a.309.309,0,0,1,.133-.265.7.7,0,0,1,.405-.091h0l.24,0q-.01-.191-.254-.193h0a.57.57,0,0,0-.176.026.467.467,0,0,0-.152.075h0l-.14-.288a.8.8,0,0,1,.244-.1,1.173,1.173,0,0,1,.288-.034Zm-.023.977a.234.234,0,0,0,.13-.034.2.2,0,0,0,.08-.1h0v-.1h-.182c-.123,0-.185.039-.186.121h0a.108.108,0,0,0,.042.089.18.18,0,0,0,.115.034Zm2.588-.957a.476.476,0,0,1,.353.136.549.549,0,0,1,.129.4h0l-.005.689-.423,0,.005-.62a.3.3,0,0,0-.046-.187.162.162,0,0,0-.134-.061h0a.192.192,0,0,0-.154.066.3.3,0,0,0-.06.2h0l0,.6-.422,0,0-.62q0-.246-.18-.248h0a.193.193,0,0,0-.156.065.3.3,0,0,0-.06.2h0l-.005.6-.423,0,.01-1.2.4,0v.126a.427.427,0,0,1,.16-.109.54.54,0,0,1,.2-.034h0a.521.521,0,0,1,.227.048.381.381,0,0,1,.161.144h0a.466.466,0,0,1,.182-.139.573.573,0,0,1,.238-.047Z" transform="translate(-1452.51 -1923.322)" fill="#103bb5"/>
          </g>
        </g>
      </g>
    </g>
  </g>
</svg>
